<?xml version="1.0" encoding="UTF-8" standalone="no"?>
<!DOCTYPE svg PUBLIC "-//W3C//DTD SVG 1.1//EN"
 "http://www.w3.org/Graphics/SVG/1.1/DTD/svg11.dtd">
<!-- Generated by graphviz version 2.40.1 (20161225.0304)
 -->
<!-- Title: %3 Pages: 1 -->
<svg width="743pt" height="231pt"
 viewBox="0.00 0.00 742.86 231.00" xmlns="http://www.w3.org/2000/svg" xmlns:xlink="http://www.w3.org/1999/xlink">
<g id="graph0" class="graph" transform="scale(1 1) rotate(0) translate(4 227)">
<title>%3</title>
<polygon fill="#3f3f3f" stroke="transparent" points="-4,4 -4,-227 738.8568,-227 738.8568,4 -4,4"/>
<text text-anchor="middle" x="367.4284" y="-9.2" font-family="Times,serif" font-size="16.00" fill="#ffffff">Network Map</text>
<!-- R4 -->
<g id="node1" class="node">
<title>R4</title>
<polygon fill="#006699" stroke="#006699" points="348.3568,-99 271.3568,-99 271.3568,-26 348.3568,-26 348.3568,-99"/>
<text text-anchor="middle" x="309.8568" y="-58.8" font-family="Helvetica,sans-Serif" font-size="14.00" fill="#ffffff">R4</text>
</g>
<!-- SW1 -->
<g id="node3" class="node">
<title>SW1</title>
<polygon fill="#006699" stroke="#006699" points="250.3568,-223 159.3568,-223 159.3568,-150 250.3568,-150 250.3568,-223"/>
<text text-anchor="middle" x="204.8568" y="-182.8" font-family="Helvetica,sans-Serif" font-size="14.00" fill="#ffffff">SW1</text>
</g>
<!-- R4&#45;&#45;SW1 -->
<g id="edge6" class="edge">
<title>R4&#45;&#45;SW1</title>
<path fill="none" stroke="#00ff00" stroke-dasharray="5,2" d="M273.7706,-99.2254C268.3299,-105.0742 262.8671,-111.1321 257.8568,-117 248.989,-127.3859 239.8057,-139.0591 231.6249,-149.8309"/>
<text text-anchor="middle" x="298.8568" y="-120.8" font-family="Courier,monospace" font-size="14.00" fill="#ffffff"> &#160;&#160;&#160;&#160;&#160;&#160;&#160;&#160;&#160;&#160;&#160;</text>
<text text-anchor="middle" x="207.6249" y="-138.6309" font-family="Courier,monospace" font-size="14.00" fill="#ffffff">Eth 0/4</text>
<text text-anchor="middle" x="249.7706" y="-103.0254" font-family="Courier,monospace" font-size="14.00" fill="#ffffff">Eth 0/0</text>
</g>
<!-- R5 -->
<g id="node6" class="node">
<title>R5</title>
<polygon fill="#006699" stroke="#006699" points="505.3568,-223 428.3568,-223 428.3568,-150 505.3568,-150 505.3568,-223"/>
<text text-anchor="middle" x="466.8568" y="-182.8" font-family="Helvetica,sans-Serif" font-size="14.00" fill="#ffffff">R5</text>
</g>
<!-- R4&#45;&#45;R5 -->
<g id="edge7" class="edge">
<title>R4&#45;&#45;R5</title>
<path fill="none" stroke="#00ff00" stroke-dasharray="5,2" d="M333.3062,-99.3585C341.7017,-110.7345 351.8405,-122.7024 362.8568,-132 382.3293,-148.4344 407.5812,-161.8134 428.326,-171.2025"/>
<text text-anchor="middle" x="403.8568" y="-120.8" font-family="Courier,monospace" font-size="14.00" fill="#ffffff"> &#160;&#160;&#160;&#160;&#160;&#160;&#160;&#160;&#160;&#160;&#160;</text>
<text text-anchor="middle" x="404.326" y="-160.0025" font-family="Courier,monospace" font-size="14.00" fill="#ffffff">Eth 0/1</text>
<text text-anchor="middle" x="309.3062" y="-103.1585" font-family="Courier,monospace" font-size="14.00" fill="#ffffff">Eth 0/1</text>
</g>
<!-- R3 -->
<g id="node2" class="node">
<title>R3</title>
<polygon fill="#006699" stroke="#006699" points="190.3568,-99 113.3568,-99 113.3568,-26 190.3568,-26 190.3568,-99"/>
<text text-anchor="middle" x="151.8568" y="-58.8" font-family="Helvetica,sans-Serif" font-size="14.00" fill="#ffffff">R3</text>
</g>
<!-- R3&#45;&#45;SW1 -->
<g id="edge5" class="edge">
<title>R3&#45;&#45;SW1</title>
<path fill="none" stroke="#00ff00" stroke-dasharray="5,2" d="M147.3879,-99.2304C147.3729,-110.1158 148.7007,-121.8357 152.8568,-132 155.4307,-138.2945 159.1044,-144.2805 163.325,-149.8237"/>
<text text-anchor="middle" x="193.8568" y="-120.8" font-family="Courier,monospace" font-size="14.00" fill="#ffffff"> &#160;&#160;&#160;&#160;&#160;&#160;&#160;&#160;&#160;&#160;&#160;</text>
<text text-anchor="middle" x="139.325" y="-138.6237" font-family="Courier,monospace" font-size="14.00" fill="#ffffff">Eth 0/3</text>
<text text-anchor="middle" x="123.3879" y="-103.0304" font-family="Courier,monospace" font-size="14.00" fill="#ffffff">Eth 0/0</text>
</g>
<!-- R2 -->
<g id="node4" class="node">
<title>R2</title>
<polygon fill="#006699" stroke="#006699" points="610.3568,-99 533.3568,-99 533.3568,-26 610.3568,-26 610.3568,-99"/>
<text text-anchor="middle" x="571.8568" y="-58.8" font-family="Helvetica,sans-Serif" font-size="14.00" fill="#ffffff">R2</text>
</g>
<!-- R2&#45;&#45;SW1 -->
<g id="edge2" class="edge">
<title>R2&#45;&#45;SW1</title>
<path fill="none" stroke="#00ff00" stroke-dasharray="5,2" d="M533.3457,-79.6168C512.2578,-89.5568 485.9898,-102.8815 463.8568,-117 454.7863,-122.786 454.5642,-127.3611 444.8568,-132 381.4393,-162.3058 300.4256,-176.1673 250.6151,-182.2046"/>
<text text-anchor="middle" x="504.8568" y="-120.8" font-family="Courier,monospace" font-size="14.00" fill="#ffffff"> &#160;&#160;&#160;&#160;&#160;&#160;&#160;&#160;&#160;&#160;&#160;</text>
<text text-anchor="middle" x="274.6151" y="-171.0046" font-family="Courier,monospace" font-size="14.00" fill="#ffffff">Eth 0/2</text>
<text text-anchor="middle" x="509.3457" y="-68.4168" font-family="Courier,monospace" font-size="14.00" fill="#ffffff">Eth 0/0</text>
</g>
<!-- R6 -->
<g id="node5" class="node">
<title>R6</title>
<polygon fill="#006699" stroke="#006699" points="715.3568,-223 638.3568,-223 638.3568,-150 715.3568,-150 715.3568,-223"/>
<text text-anchor="middle" x="676.8568" y="-182.8" font-family="Helvetica,sans-Serif" font-size="14.00" fill="#ffffff">R6</text>
</g>
<!-- R2&#45;&#45;R6 -->
<g id="edge4" class="edge">
<title>R2&#45;&#45;R6</title>
<path fill="none" stroke="#00ff00" stroke-dasharray="5,2" d="M610.6888,-86.6204C622.377,-95.1857 634.5553,-105.5698 643.8568,-117 651.7818,-126.7385 658.3362,-138.6958 663.4579,-149.9294"/>
<text text-anchor="middle" x="693.8568" y="-120.8" font-family="Courier,monospace" font-size="14.00" fill="#ffffff"> &#160;&#160;&#160;&#160;&#160;&#160;&#160;&#160;&#160;&#160;&#160;</text>
<text text-anchor="middle" x="639.4579" y="-138.7294" font-family="Courier,monospace" font-size="14.00" fill="#ffffff">Eth 0/1</text>
<text text-anchor="middle" x="634.6888" y="-75.4204" font-family="Courier,monospace" font-size="14.00" fill="#ffffff">Eth 0/2</text>
</g>
<!-- R2&#45;&#45;R5 -->
<g id="edge3" class="edge">
<title>R2&#45;&#45;R5</title>
<path fill="none" stroke="#00ff00" stroke-dasharray="5,2" d="M565.3103,-99.0177C562.0167,-110.3732 557.1157,-122.4152 549.8568,-132 538.3046,-147.254 521.1661,-159.5261 505.4574,-168.5344"/>
<text text-anchor="middle" x="598.8568" y="-120.8" font-family="Courier,monospace" font-size="14.00" fill="#ffffff"> &#160;&#160;&#160;&#160;&#160;&#160;&#160;&#160;&#160;&#160;&#160;</text>
<text text-anchor="middle" x="529.4574" y="-157.3344" font-family="Courier,monospace" font-size="14.00" fill="#ffffff">Eth 0/0</text>
<text text-anchor="middle" x="541.3103" y="-102.8177" font-family="Courier,monospace" font-size="14.00" fill="#ffffff">Eth 0/1</text>
</g>
<!-- R1 -->
<g id="node7" class="node">
<title>R1</title>
<polygon fill="#006699" stroke="#006699" points="85.3568,-99 8.3568,-99 8.3568,-26 85.3568,-26 85.3568,-99"/>
<text text-anchor="middle" x="46.8568" y="-58.8" font-family="Helvetica,sans-Serif" font-size="14.00" fill="#ffffff">R1</text>
</g>
<!-- R1&#45;&#45;SW1 -->
<g id="edge1" class="edge">
<title>R1&#45;&#45;SW1</title>
<path fill="none" stroke="#00ff00" stroke-dasharray="5,2" d="M48,-99.1155C50.0127,-110.7388 54.0556,-122.9168 61.8568,-132 86.3511,-160.5193 127.4564,-174.162 159.3264,-180.6606"/>
<text text-anchor="middle" x="102.8568" y="-120.8" font-family="Courier,monospace" font-size="14.00" fill="#ffffff"> &#160;&#160;&#160;&#160;&#160;&#160;&#160;&#160;&#160;&#160;&#160;</text>
<text text-anchor="middle" x="135.3264" y="-169.4606" font-family="Courier,monospace" font-size="14.00" fill="#ffffff">Eth 0/1</text>
<text text-anchor="middle" x="24" y="-102.9155" font-family="Courier,monospace" font-size="14.00" fill="#ffffff">Eth 0/0</text>
</g>
</g>
</svg>
